<?xml version="1.0" standalone="no"?>
<!DOCTYPE svg PUBLIC "-//W3C//DTD SVG 20010904//EN"
 "http://www.w3.org/TR/2001/REC-SVG-20010904/DTD/svg10.dtd">
<svg version="1.0" xmlns="http://www.w3.org/2000/svg"
 width="228.000000pt" height="220.000000pt" viewBox="0 0 228.000000 220.000000"
 preserveAspectRatio="xMidYMid meet">

<g transform="translate(0.000000,220.000000) scale(0.100000,-0.100000)"
fill="#000000" stroke="none">
<path d="M60 1100 l0 -1080 1080 0 1080 0 0 1080 0 1080 -1080 0 -1080 0 0
-1080z m487 -116 c-3 -3 -12 -4 -19 -1 -8 3 -5 6 6 6 11 1 17 -2 13 -5z m417
-40 c-28 -7 -224 -11 -224 -4 0 4 44 8 97 9 54 1 99 4 101 6 2 2 11 1 20 -3 9
-3 12 -7 6 -8z m115 0 c2 -2 -20 -4 -50 -3 -38 0 -48 3 -34 9 18 7 73 3 84 -6z
m-494 -14 c-3 -4 -15 -6 -27 -2 -21 5 -21 6 -2 12 21 8 37 3 29 -10z m186 -27
c13 -16 12 -17 -3 -4 -10 7 -18 15 -18 17 0 8 8 3 21 -13z m159 -8 c-7 -8 -18
-15 -24 -15 -6 0 -4 5 4 10 8 5 11 10 5 10 -5 0 -3 4 5 10 20 12 26 4 10 -15z
m215 15 c-3 -6 5 -10 19 -10 14 0 28 -4 31 -10 10 -17 25 -11 18 8 -4 10 4 6
20 -11 22 -23 28 -25 33 -13 5 12 10 13 25 5 11 -5 23 -8 28 -5 4 3 8 -12 9
-34 2 -43 1 -45 -47 -55 -26 -6 -32 -4 -27 6 4 8 1 6 -8 -5 -8 -10 -18 -16
-23 -13 -5 3 -46 -6 -92 -19 -46 -13 -87 -22 -91 -19 -5 3 -10 1 -12 -4 -1 -5
-21 -13 -42 -17 -29 -5 -37 -4 -31 5 4 7 13 10 21 7 7 -3 20 2 29 10 9 9 24
14 34 11 10 -2 18 1 18 9 0 12 -17 19 -39 15 -5 0 -8 4 -8 9 0 6 -25 9 -63 8
-60 -3 -97 9 -97 32 0 8 115 14 218 12 38 -1 62 3 62 9 0 7 19 10 49 7 36 -2
47 0 44 10 -3 6 -14 12 -25 12 -10 0 -16 5 -13 10 7 11 -15 13 -39 4 -9 -3
-13 -11 -9 -18 4 -6 -1 -5 -10 3 -11 9 -28 11 -49 7 -30 -6 -31 -5 -13 8 14
11 16 15 6 16 -8 0 -11 3 -8 6 4 4 13 1 22 -6 12 -10 19 -10 37 3 27 19 31 20
23 7z m-315 -44 c0 -17 -2 -18 -9 -6 -6 8 -8 17 -5 21 2 4 0 10 -6 14 -5 3
-10 1 -10 -6 0 -7 -3 -10 -6 -6 -3 3 -3 11 1 17 10 16 35 -8 35 -34z m187 21
c1 -10 -3 -17 -8 -15 -6 2 -10 7 -9 12 1 5 -4 12 -12 17 -9 6 -7 8 8 7 12 -1
21 -10 21 -21z m28 13 c3 -5 1 -10 -4 -10 -6 0 -11 5 -11 10 0 6 2 10 4 10 3
0 8 -4 11 -10z m-71 -9 c3 -5 -6 -11 -21 -14 -26 -5 -26 -4 -8 9 22 17 22 17
29 5z m-108 -16 c-21 -16 -32 -13 -21 4 3 6 14 11 23 11 15 -1 15 -2 -2 -15z
m1084 -28 c0 -2 -8 -3 -18 -3 -10 0 -19 6 -19 13 0 8 6 9 19 2 10 -5 18 -11
18 -12z m80 13 c0 -5 -7 -7 -15 -4 -8 4 -15 8 -15 10 0 2 7 4 15 4 8 0 15 -4
15 -10z m53 -5 c4 -8 2 -17 -3 -20 -18 -11 -10 -22 16 -22 18 0 22 2 13 8 -12
7 -12 10 0 21 8 7 11 9 9 3 -3 -5 1 -16 10 -24 13 -13 14 -12 10 12 -7 34 2
40 40 26 31 -11 34 -33 8 -51 -7 -5 -5 -8 4 -8 12 0 15 -8 12 -33 -3 -30 -7
-33 -34 -31 -36 3 -50 14 -17 14 21 1 20 2 -10 15 -18 8 -47 15 -63 15 -18 0
-27 4 -23 11 4 6 -2 5 -14 -3 -16 -10 -27 -10 -51 -1 -17 6 -28 7 -24 2 3 -5
-4 -9 -14 -9 -21 0 -49 -27 -38 -37 3 -3 21 -7 40 -7 31 -1 66 -16 39 -16 -6
0 -13 -6 -16 -13 -6 -16 39 -21 49 -5 5 8 2 9 -9 5 -14 -5 -15 -3 -5 13 16 25
28 16 22 -16 -3 -16 -1 -23 6 -19 5 3 10 2 10 -4 0 -5 -21 -8 -47 -7 -27 2
-54 -1 -60 -7 -7 -5 -22 -7 -33 -4 -11 3 -20 1 -20 -3 0 -16 -72 -24 -93 -11
-13 9 -17 9 -12 1 5 -7 -1 -7 -15 2 -18 10 -24 10 -27 1 -3 -7 -13 -13 -24
-13 -41 0 -7 -42 39 -48 15 -2 29 -6 32 -9 3 -3 -7 -3 -22 -1 -17 3 -28 1 -28
-6 0 -6 -7 0 -16 12 -11 16 -25 22 -51 22 -28 0 -34 3 -29 16 3 8 2 13 -3 10
-9 -6 -21 16 -21 39 0 17 70 30 80 15 4 -6 7 3 8 19 0 21 -4 31 -14 31 -8 0
-14 4 -14 10 0 6 -15 8 -34 4 -31 -4 -35 -2 -33 15 1 12 8 21 17 21 13 0 13 1
0 10 -9 6 -10 10 -3 10 6 0 15 -5 19 -11 4 -8 9 -8 17 0 16 16 30 13 23 -5 -3
-8 -2 -12 4 -9 6 3 11 16 11 28 1 17 2 18 6 5 5 -21 24 -23 41 -6 8 8 15 9 20
3 10 -15 51 -14 45 1 -2 6 0 15 5 18 6 3 13 -5 16 -19 4 -14 11 -25 16 -25 13
0 13 13 -2 28 -9 9 -6 14 13 21 16 6 27 6 34 -2 14 -16 97 -16 84 0 -7 7 -6
14 2 19 7 4 9 3 5 -4 -4 -7 5 -10 27 -9 23 1 33 6 30 14 -3 8 3 13 15 13 11 0
22 -7 25 -15z m-1248 -62 c2 -8 -2 -16 -11 -20 -8 -3 -14 -15 -12 -27 2 -17
-2 -21 -27 -22 -16 -1 -38 -5 -47 -9 -10 -4 -18 -3 -18 2 0 6 -10 15 -22 22
-13 6 -15 9 -5 7 15 -5 16 -2 7 14 -8 14 -8 20 0 20 6 0 8 5 4 12 -4 6 -3 9 2
6 5 -3 18 -2 29 2 31 12 94 7 100 -7z m-282 -50 c-7 -2 -21 -2 -30 0 -10 3 -4
5 12 5 17 0 24 -2 18 -5z m362 -18 c22 -18 25 -25 13 -25 -9 0 -24 -3 -32 -6
-12 -5 -15 -2 -10 9 4 12 -2 18 -20 23 -14 3 -26 10 -26 15 0 18 46 8 75 -16z
m-525 -5 c34 0 29 -25 -5 -27 -25 -1 -34 3 -38 19 -4 14 -2 18 10 14 8 -3 23
-6 33 -6z m155 -23 c22 -2 46 -6 53 -10 6 -5 12 -4 12 0 0 5 9 9 20 9 11 0 20
-6 20 -12 0 -15 -38 -25 -46 -12 -4 6 -25 8 -50 4 -29 -4 -44 -2 -44 5 0 6 -8
9 -17 6 -68 -21 -66 -22 -53 3 9 17 17 21 38 15 15 -3 45 -7 67 -8z m1655 4
c0 -5 -9 -11 -20 -14 -11 -3 -20 -1 -20 3 0 5 8 11 18 13 9 3 18 5 20 6 1 0 2
-3 2 -8z m-60 -5 c0 -2 -7 -6 -15 -10 -8 -3 -15 -1 -15 4 0 6 7 10 15 10 8 0
15 -2 15 -4z m-177 -43 c-7 -2 -13 -11 -13 -19 0 -17 -1 -17 -37 -2 l-28 11
35 7 c43 9 59 10 43 3z m107 -47 c0 -2 -9 -6 -20 -9 -11 -3 -20 -1 -20 4 0 5
9 9 20 9 11 0 20 -2 20 -4z m-380 -31 c0 -12 -29 -3 -34 10 -4 13 -2 14 14 5
11 -6 20 -13 20 -15z m193 18 c-7 -2 -19 -2 -25 0 -7 3 -2 5 12 5 14 0 19 -2
13 -5z m287 -4 c0 -4 -6 -9 -13 -12 -8 -3 -14 0 -14 7 0 7 6 13 14 13 7 0 13
-4 13 -8z m-452 -24 c-3 -3 -9 2 -12 12 -6 14 -5 15 5 6 7 -7 10 -15 7 -18z"/>
<path d="M2170 839 c0 -5 5 -7 10 -4 6 3 10 8 10 11 0 2 -4 4 -10 4 -5 0 -10
-5 -10 -11z"/>
<path d="M1725 780 c-3 -6 1 -7 9 -4 18 7 21 14 7 14 -6 0 -13 -4 -16 -10z"/>
<path d="M1836 721 c-3 -5 2 -15 12 -22 15 -13 16 -12 4 3 -10 13 -10 17 0 21
9 4 9 6 1 6 -6 1 -14 -3 -17 -8z"/>
<path d="M1928 702 c-4 -15 -1 -18 13 -15 19 5 35 33 19 33 -6 0 -10 -6 -10
-12 0 -10 -2 -10 -9 0 -6 11 -9 9 -13 -6z"/>
<path d="M740 780 c0 -5 5 -10 11 -10 5 0 7 5 4 10 -3 6 -8 10 -11 10 -2 0 -4
-4 -4 -10z"/>
</g>
</svg>
